<mxfile host="app.diagrams.net" modified="2024-07-21T23:35:25.917Z" agent="Mozilla/5.0 (Windows NT 10.0; Win64; x64) AppleWebKit/537.36 (KHTML, like Gecko) Chrome/126.0.0.0 Safari/537.36 Edg/126.0.0.0" etag="2lnX7NshWqm0fxTYcApS" version="24.7.1" type="device">
  <diagram name="PÃ¡gina-1" id="wsajbbHC-hqVX1n35nJF">
    <mxGraphModel dx="1002" dy="569" grid="1" gridSize="10" guides="1" tooltips="1" connect="1" arrows="1" fold="1" page="1" pageScale="1" pageWidth="827" pageHeight="1169" math="0" shadow="0">
      <root>
        <mxCell id="0" />
        <mxCell id="1" parent="0" />
        <mxCell id="gqcahgm15gmNk3svFm14-45" value="Companies" style="swimlane;childLayout=stackLayout;horizontal=1;startSize=50;horizontalStack=0;rounded=1;fontSize=14;fontStyle=0;strokeWidth=2;resizeParent=0;resizeLast=1;shadow=0;dashed=0;align=center;arcSize=4;whiteSpace=wrap;html=1;fillColor=#dae8fc;strokeColor=#6c8ebf;" vertex="1" parent="1">
          <mxGeometry x="340" y="180" width="160" height="110" as="geometry" />
        </mxCell>
        <mxCell id="gqcahgm15gmNk3svFm14-46" value="+company_id&lt;br&gt;+name&lt;br&gt;&lt;div&gt;&lt;br&gt;&lt;/div&gt;" style="align=left;strokeColor=none;fillColor=none;spacingLeft=4;fontSize=12;verticalAlign=top;resizable=0;rotatable=0;part=1;html=1;" vertex="1" parent="gqcahgm15gmNk3svFm14-45">
          <mxGeometry y="50" width="160" height="60" as="geometry" />
        </mxCell>
        <mxCell id="gqcahgm15gmNk3svFm14-47" value="Stocks" style="swimlane;childLayout=stackLayout;horizontal=1;startSize=50;horizontalStack=0;rounded=1;fontSize=14;fontStyle=0;strokeWidth=2;resizeParent=0;resizeLast=1;shadow=0;dashed=0;align=center;arcSize=4;whiteSpace=wrap;html=1;fillColor=#dae8fc;strokeColor=#6c8ebf;" vertex="1" parent="1">
          <mxGeometry x="70" y="105" width="160" height="240" as="geometry">
            <mxRectangle x="70" y="105" width="80" height="50" as="alternateBounds" />
          </mxGeometry>
        </mxCell>
        <mxCell id="gqcahgm15gmNk3svFm14-48" value="+stock_id&lt;div&gt;+company_id&lt;br&gt;+name&lt;/div&gt;&lt;div&gt;+date&lt;/div&gt;&lt;div&gt;+open&lt;/div&gt;&lt;div&gt;+high&lt;/div&gt;&lt;div&gt;+low&lt;/div&gt;&lt;div&gt;+close&lt;/div&gt;&lt;div&gt;+volum&lt;/div&gt;&lt;div&gt;+created_at&lt;/div&gt;&lt;div&gt;+created_by&lt;/div&gt;&lt;div&gt;&lt;br&gt;&lt;/div&gt;" style="align=left;strokeColor=none;fillColor=none;spacingLeft=4;fontSize=12;verticalAlign=top;resizable=0;rotatable=0;part=1;html=1;" vertex="1" parent="gqcahgm15gmNk3svFm14-47">
          <mxGeometry y="50" width="160" height="190" as="geometry" />
        </mxCell>
        <mxCell id="gqcahgm15gmNk3svFm14-51" value="" style="edgeStyle=orthogonalEdgeStyle;fontSize=12;html=1;endArrow=ERoneToMany;startArrow=ERmandOne;rounded=0;entryX=1.015;entryY=0.134;entryDx=0;entryDy=0;entryPerimeter=0;exitX=0;exitY=0.25;exitDx=0;exitDy=0;" edge="1" parent="1" source="gqcahgm15gmNk3svFm14-46" target="gqcahgm15gmNk3svFm14-48">
          <mxGeometry width="100" height="100" relative="1" as="geometry">
            <mxPoint x="510" y="70" as="sourcePoint" />
            <mxPoint x="260" y="9.999999999999972" as="targetPoint" />
          </mxGeometry>
        </mxCell>
      </root>
    </mxGraphModel>
  </diagram>
</mxfile>
